HIERARCHY
ROOT Pelvis
{
	OFFSET 0.000000 0.000000 0.000000
	CHANNELS 6 Xposition Yposition Zposition Xrotation Yrotation Zrotation
	JOINT LeftUpLeg_virtual
	{
		OFFSET 0.000000 0.000000 0.000000
		CHANNELS 3 Xrotation Yrotation Zrotation
		JOINT LeftUpLeg
		{
			OFFSET 8.479700 -4.795502 -0.379100
			CHANNELS 3 Xrotation Yrotation Zrotation
			JOINT LeftLeg
			{
				OFFSET 0.024144 -32.555107 0.112900
				CHANNELS 3 Xrotation Yrotation Zrotation
				JOINT LeftFoot
				{
					OFFSET -0.024144 -32.638630 -3.012600
					CHANNELS 3 Xrotation Yrotation Zrotation
					JOINT LeftToeBase
					{
						OFFSET 0.970200 -13.225400 11.864200
						CHANNELS 3 Xrotation Yrotation Zrotation
						End Site
						{
							OFFSET 0 0 0
						}
					}
				}
			}
		}
	}
	JOINT RightUpLeg_virtual
	{
		OFFSET 0.000000 0.000000 0.000000
		CHANNELS 3 Xrotation Yrotation Zrotation
		JOINT RightUpLeg
		{
			OFFSET -8.479700 -4.795502 -0.379100
			CHANNELS 3 Xrotation Yrotation Zrotation
			JOINT RightLeg
			{
				OFFSET -0.023144 -32.555092 0.112900
				CHANNELS 3 Xrotation Yrotation Zrotation
				JOINT RightFoot
				{
					OFFSET 0.023144 -32.638641 -3.012700
					CHANNELS 3 Xrotation Yrotation Zrotation
					JOINT RightToeBase
					{
						OFFSET -0.970200 -13.225400 11.864200
						CHANNELS 3 Xrotation Yrotation Zrotation
						End Site
						{
							OFFSET 0 0 0
						}
					}
				}
			}
		}
	}
	JOINT Hips_virtual
	{
		OFFSET 0.000000 0.000000 0.000000
		CHANNELS 3 Xrotation Yrotation Zrotation
		JOINT Hips
		{
			OFFSET -0.000000 -0.000000 -0.000000
			CHANNELS 3 Xrotation Yrotation Zrotation
			JOINT Spine
			{
				OFFSET 0.000000 7.722000 1.166200
				CHANNELS 3 Xrotation Yrotation Zrotation
				JOINT Spine1
				{
					OFFSET 0.000000 12.024101 0.248800
					CHANNELS 3 Xrotation Yrotation Zrotation
					JOINT Spine2
					{
						OFFSET 0.000000 11.502998 -0.491200
						CHANNELS 3 Xrotation Yrotation Zrotation
						JOINT Neck_virtual
						{
							OFFSET 0.000000 0.000000 0.000000
							CHANNELS 3 Xrotation Yrotation Zrotation
							JOINT Neck
							{
								OFFSET 0.000000 18.430702 -3.123100
								CHANNELS 3 Xrotation Yrotation Zrotation
								JOINT Head
								{
									OFFSET 0.000000 9.051102 1.034000
									CHANNELS 3 Xrotation Yrotation Zrotation
									End Site
									{
										OFFSET 0 0 0
									}
								}
							}
						}
						JOINT LeftShoulder_virtual
						{
							OFFSET 0.000000 0.000000 0.000000
							CHANNELS 3 Xrotation Yrotation Zrotation
							JOINT LeftShoulder
							{
								OFFSET 6.197800 13.665199 -4.064700
								CHANNELS 3 Xrotation Yrotation Zrotation
								JOINT LeftArm
								{
									OFFSET 7.778100 -0.187103 -1.709300
									CHANNELS 3 Xrotation Yrotation Zrotation
									JOINT LeftForeArm
									{
										OFFSET 22.049376 0.000000 0.000000
										CHANNELS 3 Xrotation Yrotation Zrotation
										JOINT LeftHand
										{
											OFFSET 23.009392 0.000000 0.000000
											CHANNELS 3 Xrotation Yrotation Zrotation
											End Site
											{
												OFFSET 0 0 0
											}
										}
									}
								}
							}
						}
						JOINT RightShoulder_virtual
						{
							OFFSET 0.000000 0.000000 0.000000
							CHANNELS 3 Xrotation Yrotation Zrotation
							JOINT RightShoulder
							{
								OFFSET -6.197800 13.665199 -4.064700
								CHANNELS 3 Xrotation Yrotation Zrotation
								JOINT RightArm
								{
									OFFSET -7.778100 -0.187103 -1.709300
									CHANNELS 3 Xrotation Yrotation Zrotation
									JOINT RightForeArm
									{
										OFFSET -22.049376 0.000000 0.000000
										CHANNELS 3 Xrotation Yrotation Zrotation
										JOINT RightHand
										{
											OFFSET -23.009392 0.000000 0.000000
											CHANNELS 3 Xrotation Yrotation Zrotation
											End Site
											{
												OFFSET 0 0 0
											}
										}
									}
								}
							}
						}
					}
				}
			}
		}
	}
}
MOTION
Frames: 7
Frame Time: 0.03333333
-1.995461 80.011475 9.783964 0.000000 0.000000 0.000000 170.198588 -60.473156 167.409753 -7.713431 10.670896 18.297276 21.068328 22.602944 2.157333 -5.843639 6.115614 -24.383581 0.000000 0.000000 0.000000 170.198588 -60.473156 167.409753 -26.985823 -19.300682 -13.797920 20.042014 -18.042954 1.749736 0.927261 0.303943 5.972424 0.000000 0.000000 0.000000 170.198588 -60.473156 167.409753 0.000000 0.000001 0.000000 10.603318 -1.102333 -0.279854 -2.398480 -2.056338 2.718428 0.000000 0.000000 0.000000 -2.356985 -1.768257 2.869752 -3.888773 19.882597 3.910877 0.000000 0.000000 0.000000 -2.356985 -1.768257 2.869752 0.705977 3.275486 -11.637328 -4.210782 -8.950353 -59.610585 5.910692 -15.225800 -6.974016 0.000000 0.000000 0.000000 -2.356985 -1.768257 2.869752 0.703466 1.524162 16.490406 17.133161 25.354784 44.976239 15.517517 24.279267 -5.951852 0.000000 0.000000 0.000000 
-1.895201 79.892868 8.567853 0.000000 0.000000 0.000000 170.527776 -58.699780 167.828963 -7.545919 10.141770 19.318022 22.010175 24.067886 2.268757 -3.277789 6.062383 -26.921034 0.000000 0.000000 0.000000 170.527776 -58.699780 167.828963 -28.681535 -22.791942 -13.590389 21.501401 -13.981765 1.034818 0.208078 1.181377 5.174934 0.000000 0.000000 0.000000 170.527776 -58.699780 167.828963 0.000000 0.000000 0.000000 10.497576 -1.204488 -0.309809 -2.304554 -2.290398 3.051408 0.000000 0.000000 0.000000 -2.253758 -1.967688 3.217100 -4.003678 18.093286 2.764204 0.000000 0.000000 0.000000 -2.253758 -1.967688 3.217100 0.768061 3.463237 -12.577560 -3.044081 -9.903340 -59.428308 7.177365 -16.260071 -6.053576 0.000000 0.000000 0.000000 -2.253758 -1.967688 3.217100 0.701266 1.355152 15.823428 16.534495 25.640276 45.312704 15.474306 24.341841 -5.985866 0.000000 0.000000 0.000000 
-1.785569 79.775551 7.365049 0.000000 0.000000 0.000000 170.990207 -57.042089 168.315409 -7.709564 10.027727 20.463163 23.438341 25.104260 2.352549 -1.020358 5.750102 -28.755001 0.000000 0.000000 0.000000 170.990207 -57.042089 168.315409 -29.781394 -25.015279 -13.159960 22.978459 -10.999015 0.434187 -0.418309 1.820716 4.732103 0.000000 0.000000 0.000000 170.990207 -57.042089 168.315409 0.000000 0.000002 0.000000 10.600291 -1.316248 -0.182652 -2.282223 -2.483316 3.172531 0.000000 0.000000 0.000000 -2.225454 -2.139751 3.353371 -4.312745 16.256598 2.263037 0.000000 0.000000 0.000000 -2.225454 -2.139751 3.353371 0.793944 3.860549 -12.834929 -2.590065 -10.725971 -59.685301 6.796636 -15.986951 -5.978539 0.000000 0.000000 0.000000 -2.225454 -2.139751 3.353371 0.708319 1.125617 15.555419 16.276315 26.099157 45.427633 15.667827 24.549530 -6.236634 0.000000 0.000000 0.000000 
-1.659555 79.656990 6.067240 0.000000 0.000000 0.000000 171.969861 -55.231659 169.115238 -7.629932 10.432605 21.842965 24.784946 25.921113 2.420705 1.233797 5.178468 -30.349799 0.000000 0.000000 0.000000 171.969861 -55.231659 169.115238 -29.842818 -25.089377 -11.987530 24.551812 -9.555567 0.206748 -1.078793 1.953368 4.406754 0.000000 0.000000 0.000000 171.969861 -55.231659 169.115238 0.000000 -0.000001 0.000000 11.005211 -1.354351 0.455439 -2.311408 -2.458901 2.656137 0.000000 0.000000 0.000000 -2.266524 -2.142661 2.841963 -4.723528 14.069390 3.187259 0.000000 0.000000 0.000000 -2.266524 -2.142661 2.841963 0.698519 3.486608 -11.418153 -2.788104 -10.705295 -61.013602 6.324330 -14.736751 -5.900927 0.000000 0.000000 0.000000 -2.266524 -2.142661 2.841963 0.748271 0.713195 16.348350 16.070855 26.382606 45.353549 15.509613 24.754740 -6.377424 0.000000 0.000000 0.000000 
-1.547327 79.530937 4.663996 0.000000 0.000000 0.000000 172.742178 -53.216015 169.611806 -7.650321 10.989173 23.396687 26.050727 26.826222 2.495595 3.841955 4.259107 -31.898179 0.000000 0.000000 0.000000 172.742178 -53.216015 169.611806 -29.528369 -24.158770 -10.295814 26.020782 -8.820048 0.170635 -1.711882 1.841980 4.105623 0.000000 0.000000 0.000000 172.742178 -53.216015 169.611806 0.000000 0.000001 0.000000 11.164419 -1.337484 0.820139 -2.184795 -2.521656 2.559256 0.000000 0.000000 0.000000 -2.144789 -2.198700 2.749641 -4.958436 12.324798 3.200034 0.000000 0.000000 0.000000 -2.144789 -2.198700 2.749641 0.681288 3.502410 -11.167992 -2.297078 -10.737603 -61.310394 5.153909 -14.651637 -6.270497 0.000000 0.000000 0.000000 -2.144789 -2.198700 2.749641 0.766242 0.445103 16.434287 15.582537 26.635752 45.617126 14.845657 25.297043 -6.336994 0.000000 0.000000 0.000000 
-1.433042 79.404068 3.316189 0.000000 0.000000 0.000000 173.497119 -51.479163 170.125983 -7.809691 11.032505 24.747025 27.600875 27.809184 2.574870 6.808054 3.147622 -33.251861 0.000000 0.000000 0.000000 173.497119 -51.479163 170.125983 -29.087761 -23.811347 -8.882589 27.375777 -7.924876 0.213074 -2.927209 1.855838 3.480030 0.000000 0.000000 0.000000 173.497119 -51.479163 170.125983 0.000000 0.000000 0.000000 11.393727 -1.401469 1.098907 -2.093803 -2.609029 2.423807 0.000000 0.000000 0.000000 -2.055905 -2.284440 2.622430 -5.116625 10.693255 3.397782 0.000000 0.000000 0.000000 -2.055905 -2.284440 2.622430 0.644781 3.403150 -10.563915 -1.632835 -11.382655 -61.919524 3.998705 -14.232996 -6.452450 0.000000 0.000000 0.000000 -2.055905 -2.284440 2.622430 0.777893 0.388697 16.739612 15.280474 26.543213 45.682416 14.567421 25.923098 -6.424959 0.000000 0.000000 0.000000 
-1.325706 79.319672 1.908947 0.000000 0.000000 0.000000 174.125359 -49.713645 170.677220 -8.300732 10.738896 25.714960 29.529114 28.101138 2.589883 8.031470 1.051785 -31.610737 0.000000 0.000000 0.000000 174.125359 -49.713645 170.677220 -28.563872 -23.345389 -7.548407 28.552346 -6.999014 0.275096 -4.122139 1.807599 2.805410 0.000000 0.000000 0.000000 174.125359 -49.713645 170.677220 0.000000 0.000001 0.000000 11.607882 -1.502430 1.098731 -2.160633 -2.728509 2.375057 0.000000 0.000000 0.000000 -2.119565 -2.394217 2.586981 -4.566212 9.080895 3.402142 0.000000 0.000000 0.000000 -2.119565 -2.394217 2.586981 0.616036 3.362028 -10.121748 -0.446450 -12.343789 -62.399352 2.775076 -14.128397 -6.587215 0.000000 0.000000 0.000000 -2.119565 -2.394217 2.586981 0.775135 0.477992 16.844432 15.144363 26.393567 45.879286 14.868249 26.329946 -6.676942 0.000000 0.000000 0.000000 
